<svg id="projet" xmlns="http://www.w3.org/2000/svg" viewBox="0 0 617.95 734.5">
    <defs>
        <style>.cls-1{fill:none;stroke-width:7px;}.cls-1,.cls-2{stroke:#fff;stroke-miterlimit:10;}.cls-2,.cls-3{fill:#fff;}
        </style>
    </defs>
    <title>projet_icon</title>
    <g>
        <path class="cls-1" d="M257.32,745.82c0,5.18,10.36,5.18,10.36,5.18H394.53c7.76,0,10.35-7.77,10.35-7.77V691.46c0-7.77-7.77-7.77-10.35-7.77H267.68s-10.36,2.59-10.36,10.36Z" transform="translate(-197.28 -20)"/>
        <path class="cls-2" d="M395,672l1.31-64s-2.61-15.67-5.22-15.67-57.47-73.13-57.47-73.13-39.17-26.12-52.23,10.45c0,0,2.61,2.61-5.23,0l-10.45-10.45V409.49s-33.95-49.63-67.91,0v141l67.91,99.26s2.62,0,2.62,5.22v23.51h23.5V649.79s-5.22-10.45-7.83-13.06-62.69-88.81-62.69-88.81l-2.61-130.6s13.06-20.89,23.51,0V524.41l52.24,57.47s18.28,5.22,15.67-13.06l-15.67-15.68s-5.23-33.95,23.5-20.89l52.24,70.52s5.23,5.22,5.23,10.45V675.9h18.28Z" transform="translate(-197.28 -20)"/>
        <path class="cls-1" d="M755.2,744.85c0,5.18-10.36,5.18-10.36,5.18H618c-7.77,0-10.36-7.77-10.36-7.77V690.49c0-7.77,7.77-7.77,10.36-7.77H744.84s10.36,2.59,10.36,10.36Z" transform="translate(-197.28 -20)"/>
        <path class="cls-2" d="M617.54,671l-1.31-64s2.61-15.68,5.23-15.68,57.46-73.13,57.46-73.13,39.18-26.12,52.24,10.45c0,0-2.62,2.61,5.22,0l10.45-10.45V408.52s33.95-49.63,67.91,0v141l-67.91,99.26s-2.61,0-2.61,5.22v23.51H720.71V648.82s5.22-10.45,7.83-13.06S791.23,547,791.23,547l2.61-130.6s-13.06-20.89-23.5,0V523.44L718.1,580.91s-18.29,5.22-15.67-13.06l15.67-15.68s5.22-33.95-23.51-20.89L642.35,601.8s-5.22,5.23-5.22,10.45v62.68H618.84Z" transform="translate(-197.28 -20)"/>
        <path class="cls-3" d="M620,250.69h3.51v-48H592.18a82.63,82.63,0,0,0-6.66-16.18l19.67-19.67,2.48-2.48-2.48-2.48-29-28.95-2.48-2.48L571.28,133l-19.74,19.74a83.32,83.32,0,0,0-15.28-6.33V115.44h-48v30.94a83.62,83.62,0,0,0-14.52,5.92L454.44,133,452,130.49,449.48,133l-28.94,28.95-2.48,2.48,2.48,2.48,18.91,18.91a82,82,0,0,0-6.74,15.77H402.18v48h30.19a82.75,82.75,0,0,0,7.08,16.93l-18.91,18.92-2.48,2.48,2.48,2.48,28.94,28.95,2.48,2.48,2.48-2.48,19.34-19.34a82.18,82.18,0,0,0,15.69,6.26v30.61h48V305.5a83.11,83.11,0,0,0,14.11-6l19.74,19.74,2.48,2.48,2.48-2.48,29-28.95,2.48-2.48-2.48-2.48L585.52,265.7a83.29,83.29,0,0,0,6.32-15H620Zm-58-24.57a49.71,49.71,0,1,1-49.71-49.71A49.77,49.77,0,0,1,562,226.12Z" transform="translate(-197.28 -20)"/>
        <path class="cls-3" d="M697.51,211.55C697.51,105.77,611.74,20,506,20S314.5,105.77,314.5,211.55a190.65,190.65,0,0,0,42.06,119.69h0c.11.12.19.23.31.35,1.65,2.09,3.38,4.09,5.15,6.1,41.47,50.35,55,98.82,55,98.82h0V600.75h53.74a35.22,35.22,0,1,0,70.44,0H595V436.52h0s13.6-48.47,55-98.82c1.77-2,3.5-4,5.15-6.1.12-.12.19-.23.31-.35h0A190.45,190.45,0,0,0,697.51,211.55ZM634,314l-.79,1c-1.25,1.54-2.55,3.07-3.85,4.56l-.55.63c-3.58,4.37-7,8.73-10.22,13.05l-17.33,25.51c-4.25,6.88-8,13.53-11.32,19.78a123.14,123.14,0,0,0-13.6,45.55H435.72a122.63,122.63,0,0,0-13.6-45.48c-3.34-6.28-7.11-12.93-11.36-19.85l-17.18-25.31c-3.26-4.36-6.72-8.8-10.37-13.21l-.55-.67c-1.3-1.49-2.6-3-3.86-4.56l-.78-1a162,162,0,0,1-36-102.28c-.12-84.94,62.93-155.07,147.45-163.4C587.29,38.71,670,115.64,670,211.55A162,162,0,0,1,634,314Z" transform="translate(-197.28 -20)"/>
    </g>
</svg>